<?xml version="1.0" encoding="UTF-8" standalone="no"?>
<svg
   version="1.1"
   viewBox="-180.5 -126.5 206.3125 202"
   width="206.3125"
   height="202"
   id="svg614"
   xmlns="http://www.w3.org/2000/svg"
   xmlns:svg="http://www.w3.org/2000/svg">
  <defs
     id="defs487" />
  <g
     id="trees-02"
     stroke-dasharray="none"
     fill="none"
     stroke="none"
     stroke-opacity="1"
     fill-opacity="1">
    <title
       id="title489">trees-02</title>
    <rect
       fill="white"
       x="-180.5"
       y="-126.5"
       width="206.3125"
       height="202"
       id="rect491" />
    <g
       id="trees-02_Layer_1">
      <title
         id="title493">Layer 1</title>
      <g
         id="Graphic_74">
        <path
           d="M -8 18 L 15.3125 18 C 20.835347 18 25.3125 22.477153 25.3125 28 L 25.3125 29 C 25.3125 34.522847 20.835347 39 15.3125 39 L -8 39 C -13.522847 39 -18 34.522847 -18 29 L -18 28 C -18 22.477153 -13.522847 18 -8 18 Z"
           fill="white"
           id="path495" />
        <path
           d="M -8 18 L 15.3125 18 C 20.835347 18 25.3125 22.477153 25.3125 28 L 25.3125 29 C 25.3125 34.522847 20.835347 39 15.3125 39 L -8 39 C -13.522847 39 -18 34.522847 -18 29 L -18 28 C -18 22.477153 -13.522847 18 -8 18 Z"
           stroke="black"
           stroke-linecap="round"
           stroke-linejoin="round"
           stroke-width="1"
           id="path497" />
        <text
           transform="translate(-13 21.5)"
           fill="black"
           id="text501"><tspan
             font-family="American Typewriter"
             font-size="12"
             fill="black"
             x="4.42225"
             y="11"
             id="tspan499">sum</tspan></text>
      </g>
      <g
         id="Graphic_73">
        <path
           d="M -62 -54 L -38.6875 -54 C -33.164653 -54 -28.6875 -49.52285 -28.6875 -44 L -28.6875 -43 C -28.6875 -37.477153 -33.164653 -33 -38.6875 -33 L -62 -33 C -67.52285 -33 -72 -37.477153 -72 -43 L -72 -44 C -72 -49.52285 -67.52285 -54 -62 -54 Z"
           fill="white"
           id="path504" />
        <path
           d="M -62 -54 L -38.6875 -54 C -33.164653 -54 -28.6875 -49.52285 -28.6875 -44 L -28.6875 -43 C -28.6875 -37.477153 -33.164653 -33 -38.6875 -33 L -62 -33 C -67.52285 -33 -72 -37.477153 -72 -43 L -72 -44 C -72 -49.52285 -67.52285 -54 -62 -54 Z"
           stroke="black"
           stroke-linecap="round"
           stroke-linejoin="round"
           stroke-width="1"
           id="path506" />
        <text
           transform="translate(-67 -50.5)"
           fill="black"
           id="text510"><tspan
             font-family="American Typewriter"
             font-size="12"
             fill="black"
             x="4.42225"
             y="11"
             id="tspan508">sum</tspan></text>
      </g>
      <g
         id="Graphic_72">
        <path
           d="M -35 -18 L -11.6875 -18 C -6.1646525 -18 -1.6875 -13.522847 -1.6875 -8 L -1.6875 -7 C -1.6875 -1.4771525 -6.1646525 3 -11.6875 3 L -35 3 C -40.522847 3 -45 -1.4771525 -45 -7 L -45 -8 C -45 -13.522847 -40.522847 -18 -35 -18 Z"
           fill="white"
           id="path513" />
        <path
           d="M -35 -18 L -11.6875 -18 C -6.1646525 -18 -1.6875 -13.522847 -1.6875 -8 L -1.6875 -7 C -1.6875 -1.4771525 -6.1646525 3 -11.6875 3 L -35 3 C -40.522847 3 -45 -1.4771525 -45 -7 L -45 -8 C -45 -13.522847 -40.522847 -18 -35 -18 Z"
           stroke="black"
           stroke-linecap="round"
           stroke-linejoin="round"
           stroke-width="1"
           id="path515" />
        <text
           transform="translate(-40 -14.5)"
           fill="black"
           id="text519"><tspan
             font-family="American Typewriter"
             font-size="12"
             fill="black"
             x="1.69825"
             y="11"
             id="tspan517">more</tspan></text>
      </g>
      <g
         id="Graphic_71">
        <path
           d="M -62 18 L -38.6875 18 C -33.164653 18 -28.6875 22.477153 -28.6875 28 L -28.6875 29 C -28.6875 34.522847 -33.164653 39 -38.6875 39 L -62 39 C -67.52285 39 -72 34.522847 -72 29 L -72 28 C -72 22.477153 -67.52285 18 -62 18 Z"
           fill="white"
           id="path522" />
        <path
           d="M -62 18 L -38.6875 18 C -33.164653 18 -28.6875 22.477153 -28.6875 28 L -28.6875 29 C -28.6875 34.522847 -33.164653 39 -38.6875 39 L -62 39 C -67.52285 39 -72 34.522847 -72 29 L -72 28 C -72 22.477153 -67.52285 18 -62 18 Z"
           stroke="black"
           stroke-linecap="round"
           stroke-linejoin="round"
           stroke-width="1"
           id="path524" />
        <text
           transform="translate(-67 21.5)"
           fill="black"
           id="text528"><tspan
             font-family="American Typewriter"
             font-size="12"
             fill="black"
             x="13.65625"
             y="11"
             id="tspan526">+</tspan></text>
      </g>
      <g
         id="Graphic_70">
        <path
           d="M -116 18 L -92.6875 18 C -87.16465 18 -82.6875 22.477153 -82.6875 28 L -82.6875 29 C -82.6875 34.522847 -87.16465 39 -92.6875 39 L -116 39 C -121.52285 39 -126 34.522847 -126 29 L -126 28 C -126 22.477153 -121.52285 18 -116 18 Z"
           fill="white"
           id="path531" />
        <path
           d="M -116 18 L -92.6875 18 C -87.16465 18 -82.6875 22.477153 -82.6875 28 L -82.6875 29 C -82.6875 34.522847 -87.16465 39 -92.6875 39 L -116 39 C -121.52285 39 -126 34.522847 -126 29 L -126 28 C -126 22.477153 -121.52285 18 -116 18 Z"
           stroke="black"
           stroke-linecap="round"
           stroke-linejoin="round"
           stroke-width="1"
           id="path533" />
        <text
           transform="translate(-121 21.5)"
           fill="black"
           id="text537"><tspan
             font-family="American Typewriter"
             font-size="12"
             fill="black"
             x="12.83425"
             y="11"
             id="tspan535">2</tspan></text>
      </g>
      <g
         id="Line_69">
        <line
           x1="-42.46875"
           y1="-33"
           x2="-31.21875"
           y2="-18"
           stroke="#7f8080"
           stroke-linecap="round"
           stroke-linejoin="round"
           stroke-width="1"
           id="line540" />
      </g>
      <g
         id="Line_68">
        <line
           x1="-31.21875"
           y1="3"
           x2="-42.46875"
           y2="18"
           stroke="#7f8080"
           stroke-linecap="round"
           stroke-linejoin="round"
           stroke-width="1"
           id="line543" />
      </g>
      <g
         id="Line_67">
        <line
           x1="-58.21875"
           y1="-33"
           x2="-96.46875"
           y2="18"
           stroke="#7f8080"
           stroke-linecap="round"
           stroke-linejoin="round"
           stroke-width="1"
           id="line546" />
      </g>
      <g
         id="Graphic_66">
        <path
           d="M -8 54 L 15.3125 54 C 20.835347 54 25.3125 58.47715 25.3125 64 L 25.3125 65 C 25.3125 70.52285 20.835347 75 15.3125 75 L -8 75 C -13.522847 75 -18 70.52285 -18 65 L -18 64 C -18 58.47715 -13.522847 54 -8 54 Z"
           fill="white"
           id="path549" />
        <path
           d="M -8 54 L 15.3125 54 C 20.835347 54 25.3125 58.47715 25.3125 64 L 25.3125 65 C 25.3125 70.52285 20.835347 75 15.3125 75 L -8 75 C -13.522847 75 -18 70.52285 -18 65 L -18 64 C -18 58.47715 -13.522847 54 -8 54 Z"
           stroke="black"
           stroke-linecap="round"
           stroke-linejoin="round"
           stroke-width="1"
           id="path551" />
        <text
           transform="translate(-13 57.5)"
           fill="black"
           id="text555"><tspan
             font-family="American Typewriter"
             font-size="12"
             fill="black"
             x="12.83425"
             y="11"
             id="tspan553">3</tspan></text>
      </g>
      <g
         id="Line_65">
        <line
           x1="3.65625"
           y1="39"
           x2="3.65625"
           y2="54"
           stroke="#7f8080"
           stroke-linecap="round"
           stroke-linejoin="round"
           stroke-width="1"
           id="line558" />
      </g>
      <g
         id="Line_64">
        <line
           x1="-15.46875"
           y1="3"
           x2="-4.21875"
           y2="18"
           stroke="#7f8080"
           stroke-linecap="round"
           stroke-linejoin="round"
           stroke-width="1"
           id="line561" />
      </g>
      <g
         id="Graphic_62">
        <path
           d="M -116 -126 L -92.6875 -126 C -87.16465 -126 -82.6875 -121.52285 -82.6875 -116 L -82.6875 -115 C -82.6875 -109.47715 -87.16465 -105 -92.6875 -105 L -116 -105 C -121.52285 -105 -126 -109.47715 -126 -115 L -126 -116 C -126 -121.52285 -121.52285 -126 -116 -126 Z"
           fill="white"
           id="path564" />
        <path
           d="M -116 -126 L -92.6875 -126 C -87.16465 -126 -82.6875 -121.52285 -82.6875 -116 L -82.6875 -115 C -82.6875 -109.47715 -87.16465 -105 -92.6875 -105 L -116 -105 C -121.52285 -105 -126 -109.47715 -126 -115 L -126 -116 C -126 -121.52285 -121.52285 -126 -116 -126 Z"
           stroke="black"
           stroke-linecap="round"
           stroke-linejoin="round"
           stroke-width="1"
           id="path566" />
        <text
           transform="translate(-121 -122.5)"
           fill="black"
           id="text570"><tspan
             font-family="American Typewriter"
             font-size="12"
             fill="black"
             x="4.42225"
             y="11"
             id="tspan568">sum</tspan></text>
      </g>
      <g
         id="Graphic_61">
        <path
           d="M -89 -90 L -65.6875 -90 C -60.16465 -90 -55.6875 -85.52285 -55.6875 -80 L -55.6875 -79 C -55.6875 -73.47715 -60.16465 -69 -65.6875 -69 L -89 -69 C -94.52285 -69 -99 -73.47715 -99 -79 L -99 -80 C -99 -85.52285 -94.52285 -90 -89 -90 Z"
           fill="white"
           id="path573" />
        <path
           d="M -89 -90 L -65.6875 -90 C -60.16465 -90 -55.6875 -85.52285 -55.6875 -80 L -55.6875 -79 C -55.6875 -73.47715 -60.16465 -69 -65.6875 -69 L -89 -69 C -94.52285 -69 -99 -73.47715 -99 -79 L -99 -80 C -99 -85.52285 -94.52285 -90 -89 -90 Z"
           stroke="black"
           stroke-linecap="round"
           stroke-linejoin="round"
           stroke-width="1"
           id="path575" />
        <text
           transform="translate(-94 -86.5)"
           fill="black"
           id="text579"><tspan
             font-family="American Typewriter"
             font-size="12"
             fill="black"
             x="1.69825"
             y="11"
             id="tspan577">more</tspan></text>
      </g>
      <g
         id="Graphic_60">
        <path
           d="M -116 -54 L -92.6875 -54 C -87.16465 -54 -82.6875 -49.52285 -82.6875 -44 L -82.6875 -43 C -82.6875 -37.477153 -87.16465 -33 -92.6875 -33 L -116 -33 C -121.52285 -33 -126 -37.477153 -126 -43 L -126 -44 C -126 -49.52285 -121.52285 -54 -116 -54 Z"
           fill="white"
           id="path582" />
        <path
           d="M -116 -54 L -92.6875 -54 C -87.16465 -54 -82.6875 -49.52285 -82.6875 -44 L -82.6875 -43 C -82.6875 -37.477153 -87.16465 -33 -92.6875 -33 L -116 -33 C -121.52285 -33 -126 -37.477153 -126 -43 L -126 -44 C -126 -49.52285 -121.52285 -54 -116 -54 Z"
           stroke="black"
           stroke-linecap="round"
           stroke-linejoin="round"
           stroke-width="1"
           id="path584" />
        <text
           transform="translate(-121 -50.5)"
           fill="black"
           id="text588"><tspan
             font-family="American Typewriter"
             font-size="12"
             fill="black"
             x="13.65625"
             y="11"
             id="tspan586">+</tspan></text>
      </g>
      <g
         id="Graphic_59">
        <path
           d="M -170 -54 L -146.6875 -54 C -141.16465 -54 -136.6875 -49.52285 -136.6875 -44 L -136.6875 -43 C -136.6875 -37.477153 -141.16465 -33 -146.6875 -33 L -170 -33 C -175.52285 -33 -180 -37.477153 -180 -43 L -180 -44 C -180 -49.52285 -175.52285 -54 -170 -54 Z"
           fill="white"
           id="path591" />
        <path
           d="M -170 -54 L -146.6875 -54 C -141.16465 -54 -136.6875 -49.52285 -136.6875 -44 L -136.6875 -43 C -136.6875 -37.477153 -141.16465 -33 -146.6875 -33 L -170 -33 C -175.52285 -33 -180 -37.477153 -180 -43 L -180 -44 C -180 -49.52285 -175.52285 -54 -170 -54 Z"
           stroke="black"
           stroke-linecap="round"
           stroke-linejoin="round"
           stroke-width="1"
           id="path593" />
        <text
           transform="translate(-175 -50.5)"
           fill="black"
           id="text597"><tspan
             font-family="American Typewriter"
             font-size="12"
             fill="black"
             x="12.83425"
             y="11"
             id="tspan595">1</tspan></text>
      </g>
      <g
         id="Line_58">
        <line
           x1="-96.46875"
           y1="-105"
           x2="-85.21875"
           y2="-90"
           stroke="#7f8080"
           stroke-linecap="round"
           stroke-linejoin="round"
           stroke-width="1"
           id="line600" />
      </g>
      <g
         id="Line_57">
        <line
           x1="-85.21875"
           y1="-69"
           x2="-96.46875"
           y2="-54"
           stroke="#7f8080"
           stroke-linecap="round"
           stroke-linejoin="round"
           stroke-width="1"
           id="line603" />
      </g>
      <g
         id="Line_56">
        <line
           x1="-112.21875"
           y1="-105"
           x2="-150.46875"
           y2="-54"
           stroke="#7f8080"
           stroke-linecap="round"
           stroke-linejoin="round"
           stroke-width="1"
           id="line606" />
      </g>
      <g
         id="Line_75">
        <line
           x1="-69.46875"
           y1="-69"
           x2="-58.21875"
           y2="-54"
           stroke="#7f8080"
           stroke-linecap="round"
           stroke-linejoin="round"
           stroke-width="1"
           id="line609" />
      </g>
    </g>
  </g>
</svg>
