<?xml version="1.0" encoding="UTF-8" standalone="no"?>
<!DOCTYPE svg PUBLIC "-//W3C//DTD SVG 1.1//EN" "http://www.w3.org/Graphics/SVG/1.1/DTD/svg11.dtd">
<svg xmlns="http://www.w3.org/2000/svg" xmlns:dc="http://purl.org/dc/elements/1.1/" version="1.1" xmlns:xl="http://www.w3.org/1999/xlink" viewBox="-390 185.5 291.5 238" width="291.5" height="238">
  <defs/>
  <g id="parser-04" fill-opacity="1" fill="none" stroke-dasharray="none" stroke-opacity="1" stroke="none">
    <title>parser-04</title>
    <rect fill="white" x="-390" y="185.5" width="291.5" height="238"/>
    <g id="parser-04_Layer_1">
      <title>Layer 1</title>
      <g id="Group_462">
        <g id="Graphic_448">
          <path d="M -242 402 L -190 402 C -184.47715 402 -180 406.47715 -180 412 L -180 413 C -180 418.52285 -184.47715 423 -190 423 L -242 423 C -247.52285 423 -252 418.52285 -252 413 L -252 412 C -252 406.47715 -247.52285 402 -242 402 Z" fill="#c0ffc0"/>
          <path d="M -242 402 L -190 402 C -184.47715 402 -180 406.47715 -180 412 L -180 413 C -180 418.52285 -184.47715 423 -190 423 L -242 423 C -247.52285 423 -252 418.52285 -252 413 L -252 412 C -252 406.47715 -247.52285 402 -242 402 Z" stroke="black" stroke-linecap="round" stroke-linejoin="round" stroke-width="1"/>
          <text transform="translate(-247 406.5)" fill="black">
            <tspan font-family="American Typewriter" font-size="10" fill="black" x="11.365" y="9">ref: sum</tspan>
          </text>
        </g>
        <g id="Graphic_447">
          <path d="M -241.75 348 L -189.75 348 C -184.22715 348 -179.75 352.47715 -179.75 358 L -179.75 359 C -179.75 364.52285 -184.22715 369 -189.75 369 L -241.75 369 C -247.27285 369 -251.75 364.52285 -251.75 359 L -251.75 358 C -251.75 352.47715 -247.27285 348 -241.75 348 Z" fill="white"/>
          <path d="M -241.75 348 L -189.75 348 C -184.22715 348 -179.75 352.47715 -179.75 358 L -179.75 359 C -179.75 364.52285 -184.22715 369 -189.75 369 L -241.75 369 C -247.27285 369 -251.75 364.52285 -251.75 359 L -251.75 358 C -251.75 352.47715 -247.27285 348 -241.75 348 Z" stroke="black" stroke-linecap="round" stroke-linejoin="round" stroke-width="1"/>
          <text transform="translate(-246.75 352.5)" fill="black">
            <tspan font-family="American Typewriter" font-size="10" fill="black" x="6.74" y="9">rule: term</tspan>
          </text>
        </g>
        <g id="Graphic_446">
          <path d="M -242 375 L -190 375 C -184.47715 375 -180 379.47715 -180 385 L -180 386 C -180 391.52285 -184.47715 396 -190 396 L -242 396 C -247.52285 396 -252 391.52285 -252 386 L -252 385 C -252 379.47715 -247.52285 375 -242 375 Z" fill="#ffffc0"/>
          <path d="M -242 375 L -190 375 C -184.47715 375 -180 379.47715 -180 385 L -180 386 C -180 391.52285 -184.47715 396 -190 396 L -242 396 C -247.52285 396 -252 391.52285 -252 386 L -252 385 C -252 379.47715 -247.52285 375 -242 375 Z" stroke="black" stroke-linecap="round" stroke-linejoin="round" stroke-width="1"/>
          <text transform="translate(-247 379.5)" fill="black">
            <tspan font-family="American Typewriter" font-size="10" fill="black" x="23.08" y="9">seq</tspan>
          </text>
        </g>
        <g id="Graphic_445">
          <path d="M -323 402 L -271 402 C -265.47715 402 -261 406.47715 -261 412 L -261 413 C -261 418.52285 -265.47715 423 -271 423 L -323 423 C -328.52285 423 -333 418.52285 -333 413 L -333 412 C -333 406.47715 -328.52285 402 -323 402 Z" fill="#40ffff"/>
          <path d="M -323 402 L -271 402 C -265.47715 402 -261 406.47715 -261 412 L -261 413 C -261 418.52285 -265.47715 423 -271 423 L -323 423 C -328.52285 423 -333 418.52285 -333 413 L -333 412 C -333 406.47715 -328.52285 402 -323 402 Z" stroke="black" stroke-linecap="round" stroke-linejoin="round" stroke-width="1"/>
          <text transform="translate(-328 406.5)" fill="black">
            <tspan font-family="American Typewriter" font-size="10" fill="black" x="18.465" y="9">lit: ‘(‘</tspan>
          </text>
        </g>
        <g id="Graphic_444">
          <path d="M -161 402 L -109 402 C -103.47715 402 -99 406.47715 -99 412 L -99 413 C -99 418.52285 -103.47715 423 -109 423 L -161 423 C -166.52285 423 -171 418.52285 -171 413 L -171 412 C -171 406.47715 -166.52285 402 -161 402 Z" fill="white"/>
          <path d="M -161 402 L -109 402 C -103.47715 402 -99 406.47715 -99 412 L -99 413 C -99 418.52285 -103.47715 423 -109 423 L -161 423 C -166.52285 423 -171 418.52285 -171 413 L -171 412 C -171 406.47715 -166.52285 402 -161 402 Z" stroke="black" stroke-linecap="round" stroke-linejoin="round" stroke-width="1"/>
          <text transform="translate(-166 406.5)" fill="black">
            <tspan font-family="American Typewriter" font-size="10" fill="black" x="18.465" y="9">lit: ‘)‘</tspan>
          </text>
        </g>
        <g id="Graphic_440">
          <path d="M -242 348 L -190 348 C -184.47715 348 -180 352.47715 -180 358 L -180 359 C -180 364.52285 -184.47715 369 -190 369 L -242 369 C -247.52285 369 -252 364.52285 -252 359 L -252 358 C -252 352.47715 -247.52285 348 -242 348 Z" fill="#ffc0c0"/>
          <path d="M -242 348 L -190 348 C -184.47715 348 -180 352.47715 -180 358 L -180 359 C -180 364.52285 -184.47715 369 -190 369 L -242 369 C -247.52285 369 -252 364.52285 -252 359 L -252 358 C -252 352.47715 -247.52285 348 -242 348 Z" stroke="black" stroke-linecap="round" stroke-linejoin="round" stroke-width="1"/>
          <text transform="translate(-247 352.5)" fill="black">
            <tspan font-family="American Typewriter" font-size="10" fill="black" x="7.99" y="9">rule:term</tspan>
          </text>
        </g>
        <g id="Graphic_439">
          <path d="M -354.5 348 L -302.5 348 C -296.97715 348 -292.5 352.47715 -292.5 358 L -292.5 359 C -292.5 364.52285 -296.97715 369 -302.5 369 L -354.5 369 C -360.02285 369 -364.5 364.52285 -364.5 359 L -364.5 358 C -364.5 352.47715 -360.02285 348 -354.5 348 Z" fill="#40ffff"/>
          <path d="M -354.5 348 L -302.5 348 C -296.97715 348 -292.5 352.47715 -292.5 358 L -292.5 359 C -292.5 364.52285 -296.97715 369 -302.5 369 L -354.5 369 C -360.02285 369 -364.5 364.52285 -364.5 359 L -364.5 358 C -364.5 352.47715 -360.02285 348 -354.5 348 Z" stroke="black" stroke-linecap="round" stroke-linejoin="round" stroke-width="1"/>
          <text transform="translate(-359.5 352.5)" fill="black">
            <tspan font-family="American Typewriter" font-size="10" fill="black" x="19.19" y="9">lit: ‘-’</tspan>
          </text>
        </g>
        <g id="Graphic_438">
          <path d="M -298.25 321 L -246.25 321 C -240.72715 321 -236.25 325.47715 -236.25 331 L -236.25 332 C -236.25 337.52285 -240.72715 342 -246.25 342 L -298.25 342 C -303.77285 342 -308.25 337.52285 -308.25 332 L -308.25 331 C -308.25 325.47715 -303.77285 321 -298.25 321 Z" fill="#ffffc0"/>
          <path d="M -298.25 321 L -246.25 321 C -240.72715 321 -236.25 325.47715 -236.25 331 L -236.25 332 C -236.25 337.52285 -240.72715 342 -246.25 342 L -298.25 342 C -303.77285 342 -308.25 337.52285 -308.25 332 L -308.25 331 C -308.25 325.47715 -303.77285 321 -298.25 321 Z" stroke="black" stroke-linecap="round" stroke-linejoin="round" stroke-width="1"/>
          <text transform="translate(-303.25 325.5)" fill="black">
            <tspan font-family="American Typewriter" font-size="10" fill="black" x="23.08" y="9">seq</tspan>
          </text>
        </g>
        <g id="Group_422">
          <g id="Graphic_437">
            <path d="M -379.5 294 L -327.5 294 C -321.97715 294 -317.5 298.47715 -317.5 304 L -317.5 305 C -317.5 310.52285 -321.97715 315 -327.5 315 L -379.5 315 C -385.02285 315 -389.5 310.52285 -389.5 305 L -389.5 304 C -389.5 298.47715 -385.02285 294 -379.5 294 Z" fill="#40ffff"/>
            <path d="M -379.5 294 L -327.5 294 C -321.97715 294 -317.5 298.47715 -317.5 304 L -317.5 305 C -317.5 310.52285 -321.97715 315 -327.5 315 L -379.5 315 C -385.02285 315 -389.5 310.52285 -389.5 305 L -389.5 304 C -389.5 298.47715 -385.02285 294 -379.5 294 Z" stroke="black" stroke-linecap="round" stroke-linejoin="round" stroke-width="1"/>
            <text transform="translate(-384.5 298.5)" fill="black">
              <tspan font-family="American Typewriter" font-size="10" fill="black" x="7.11" y="9">Number:1</tspan>
            </text>
          </g>
          <g id="Graphic_436">
            <path d="M -379.5 267 L -327.5 267 C -321.97715 267 -317.5 271.47715 -317.5 277 L -317.5 278 C -317.5 283.52285 -321.97715 288 -327.5 288 L -379.5 288 C -385.02285 288 -389.5 283.52285 -389.5 278 L -389.5 277 C -389.5 271.47715 -385.02285 267 -379.5 267 Z" stroke="black" stroke-linecap="round" stroke-linejoin="round" stroke-width="1"/>
            <text transform="translate(-384.5 271.5)" fill="black">
              <tspan font-family="American Typewriter" font-size="10" fill="black" x="23.08" y="9">seq</tspan>
            </text>
          </g>
          <g id="Graphic_435">
            <path d="M -379.5 240 L -327.5 240 C -321.97715 240 -317.5 244.47715 -317.5 250 L -317.5 251 C -317.5 256.52285 -321.97715 261 -327.5 261 L -379.5 261 C -385.02285 261 -389.5 256.52285 -389.5 251 L -389.5 250 C -389.5 244.47715 -385.02285 240 -379.5 240 Z" stroke="black" stroke-linecap="round" stroke-linejoin="round" stroke-width="1"/>
            <text transform="translate(-384.5 244.5)" fill="black">
              <tspan font-family="American Typewriter" font-size="10" fill="black" x="7.99" y="9">rule:term</tspan>
            </text>
          </g>
          <g id="Graphic_434">
            <path d="M -298.25 294 L -246.25 294 C -240.72715 294 -236.25 298.47715 -236.25 304 L -236.25 305 C -236.25 310.52285 -240.72715 315 -246.25 315 L -298.25 315 C -303.77285 315 -308.25 310.52285 -308.25 305 L -308.25 304 C -308.25 298.47715 -303.77285 294 -298.25 294 Z" fill="#ffc0c0"/>
            <path d="M -298.25 294 L -246.25 294 C -240.72715 294 -236.25 298.47715 -236.25 304 L -236.25 305 C -236.25 310.52285 -240.72715 315 -246.25 315 L -298.25 315 C -303.77285 315 -308.25 310.52285 -308.25 305 L -308.25 304 C -308.25 298.47715 -303.77285 294 -298.25 294 Z" stroke="black" stroke-linecap="round" stroke-linejoin="round" stroke-width="1"/>
            <text transform="translate(-303.25 298.5)" fill="black">
              <tspan font-family="American Typewriter" font-size="10" fill="black" x="7.33" y="9">rule:more</tspan>
            </text>
          </g>
          <g id="Graphic_433">
            <path d="M -298.5 240 L -246.5 240 C -240.97715 240 -236.5 244.47715 -236.5 250 L -236.5 251 C -236.5 256.52285 -240.97715 261 -246.5 261 L -298.5 261 C -304.02285 261 -308.5 256.52285 -308.5 251 L -308.5 250 C -308.5 244.47715 -304.02285 240 -298.5 240 Z" fill="#ffc0ff"/>
            <path d="M -298.5 240 L -246.5 240 C -240.97715 240 -236.5 244.47715 -236.5 250 L -236.5 251 C -236.5 256.52285 -240.97715 261 -246.5 261 L -298.5 261 C -304.02285 261 -308.5 256.52285 -308.5 251 L -308.5 250 C -308.5 244.47715 -304.02285 240 -298.5 240 Z" stroke="black" stroke-linecap="round" stroke-linejoin="round" stroke-width="1"/>
            <text transform="translate(-303.5 244.5)" fill="black">
              <tspan font-family="American Typewriter" font-size="10" fill="black" x="11.03" y="9">{ some }</tspan>
            </text>
          </g>
          <g id="Graphic_432">
            <path d="M -298.5 267 L -246.5 267 C -240.97715 267 -236.5 271.47715 -236.5 277 L -236.5 278 C -236.5 283.52285 -240.97715 288 -246.5 288 L -298.5 288 C -304.02285 288 -308.5 283.52285 -308.5 278 L -308.5 277 C -308.5 271.47715 -304.02285 267 -298.5 267 Z" fill="#ffffc0"/>
            <path d="M -298.5 267 L -246.5 267 C -240.97715 267 -236.5 271.47715 -236.5 277 L -236.5 278 C -236.5 283.52285 -240.97715 288 -246.5 288 L -298.5 288 C -304.02285 288 -308.5 283.52285 -308.5 278 L -308.5 277 C -308.5 271.47715 -304.02285 267 -298.5 267 Z" stroke="black" stroke-linecap="round" stroke-linejoin="round" stroke-width="1"/>
            <text transform="translate(-303.5 271.5)" fill="black">
              <tspan font-family="American Typewriter" font-size="10" fill="black" x="23.08" y="9">seq</tspan>
            </text>
          </g>
          <g id="Graphic_431">
            <path d="M -339 213 L -287 213 C -281.47715 213 -277 217.47715 -277 223 L -277 224 C -277 229.52285 -281.47715 234 -287 234 L -339 234 C -344.52285 234 -349 229.52285 -349 224 L -349 223 C -349 217.47715 -344.52285 213 -339 213 Z" fill="#ffffc0"/>
            <path d="M -339 213 L -287 213 C -281.47715 213 -277 217.47715 -277 223 L -277 224 C -277 229.52285 -281.47715 234 -287 234 L -339 234 C -344.52285 234 -349 229.52285 -349 224 L -349 223 C -349 217.47715 -344.52285 213 -339 213 Z" stroke="black" stroke-linecap="round" stroke-linejoin="round" stroke-width="1"/>
            <text transform="translate(-344 217.5)" fill="black">
              <tspan font-family="American Typewriter" font-size="10" fill="black" x="23.08" y="9">seq</tspan>
            </text>
          </g>
          <g id="Graphic_430">
            <path d="M -339 186 L -287 186 C -281.47715 186 -277 190.47715 -277 196 L -277 197 C -277 202.52285 -281.47715 207 -287 207 L -339 207 C -344.52285 207 -349 202.52285 -349 197 L -349 196 C -349 190.47715 -344.52285 186 -339 186 Z" fill="#ffc0c0"/>
            <path d="M -339 186 L -287 186 C -281.47715 186 -277 190.47715 -277 196 L -277 197 C -277 202.52285 -281.47715 207 -287 207 L -339 207 C -344.52285 207 -349 202.52285 -349 197 L -349 196 C -349 190.47715 -344.52285 186 -339 186 Z" stroke="black" stroke-linecap="round" stroke-linejoin="round" stroke-width="1"/>
            <text transform="translate(-344 190.5)" fill="black">
              <tspan font-family="American Typewriter" font-size="10" fill="black" x="8.35" y="9">rule: sum</tspan>
            </text>
          </g>
          <g id="Line_429">
            <line x1="-313" y1="207" x2="-313" y2="213" stroke="#7f8080" stroke-linecap="round" stroke-linejoin="round" stroke-width="1"/>
          </g>
          <g id="Line_428">
            <line x1="-328.75" y1="234" x2="-337.75" y2="240" stroke="#7f8080" stroke-linecap="round" stroke-linejoin="round" stroke-width="1"/>
          </g>
          <g id="Line_427">
            <line x1="-353.5" y1="261" x2="-353.5" y2="267" stroke="#7f8080" stroke-linecap="round" stroke-linejoin="round" stroke-width="1"/>
          </g>
          <g id="Line_426">
            <line x1="-353.5" y1="288" x2="-353.5" y2="294" stroke="#7f8080" stroke-linecap="round" stroke-linejoin="round" stroke-width="1"/>
          </g>
          <g id="Line_425">
            <line x1="-297.25" y1="234" x2="-288.25" y2="240" stroke="#7f8080" stroke-linecap="round" stroke-linejoin="round" stroke-width="1"/>
          </g>
          <g id="Line_424">
            <line x1="-272.5" y1="261" x2="-272.5" y2="267" stroke="#7f8080" stroke-linecap="round" stroke-linejoin="round" stroke-width="1"/>
          </g>
          <g id="Line_423">
            <line x1="-272.40278" y1="288" x2="-272.34722" y2="294" stroke="#7f8080" stroke-linecap="round" stroke-linejoin="round" stroke-width="1"/>
          </g>
        </g>
        <g id="Line_421">
          <line x1="-272.25" y1="315" x2="-272.25" y2="321" stroke="#7f8080" stroke-linecap="round" stroke-linejoin="round" stroke-width="1"/>
        </g>
        <g id="Line_420">
          <line x1="-294.125" y1="342" x2="-306.625" y2="348" stroke="#7f8080" stroke-linecap="round" stroke-linejoin="round" stroke-width="1"/>
        </g>
        <g id="Line_419">
          <line x1="-250.375" y1="342" x2="-237.875" y2="348" stroke="#7f8080" stroke-linecap="round" stroke-linejoin="round" stroke-width="1"/>
        </g>
        <g id="Line_418">
          <line x1="-216" y1="369" x2="-216" y2="375" stroke="#7f8080" stroke-linecap="round" stroke-linejoin="round" stroke-width="1"/>
        </g>
        <g id="Line_417">
          <line x1="-245.55218" y1="395.35073" x2="-267.44782" y2="402.64927" stroke="#7f8080" stroke-linecap="round" stroke-linejoin="round" stroke-width="1"/>
        </g>
        <g id="Line_416">
          <line x1="-216" y1="396" x2="-216" y2="402" stroke="#7f8080" stroke-linecap="round" stroke-linejoin="round" stroke-width="1"/>
        </g>
        <g id="Line_415">
          <line x1="-186.44782" y1="395.35073" x2="-164.55218" y2="402.64927" stroke="#7f8080" stroke-linecap="round" stroke-linejoin="round" stroke-width="1"/>
        </g>
      </g>
    </g>
  </g>
</svg>
