<?xml version="1.0" encoding="UTF-8" standalone="no"?>
<!DOCTYPE svg PUBLIC "-//W3C//DTD SVG 1.1//EN" "http://www.w3.org/Graphics/SVG/1.1/DTD/svg11.dtd">
<svg xmlns="http://www.w3.org/2000/svg" xmlns:dc="http://purl.org/dc/elements/1.1/" version="1.1" xmlns:xl="http://www.w3.org/1999/xlink" viewBox="-567.5 -93.5 73 22" width="73" height="22">
  <defs/>
  <g id="parser-04" fill-opacity="1" fill="none" stroke-dasharray="none" stroke-opacity="1" stroke="none">
    <title>parser-04</title>
    <rect fill="white" x="-567.5" y="-93.5" width="73" height="22"/>
    <g id="parser-04_Layer_1">
      <title>Layer 1</title>
      <g id="Graphic_24">
        <path d="M -557 -93 L -505 -93 C -499.47715 -93 -495 -88.52285 -495 -83 L -495 -82 C -495 -76.47715 -499.47715 -72 -505 -72 L -557 -72 C -562.52285 -72 -567 -76.47715 -567 -82 L -567 -83 C -567 -88.52285 -562.52285 -93 -557 -93 Z" fill="#c0ffc0"/>
        <path d="M -557 -93 L -505 -93 C -499.47715 -93 -495 -88.52285 -495 -83 L -495 -82 C -495 -76.47715 -499.47715 -72 -505 -72 L -557 -72 C -562.52285 -72 -567 -76.47715 -567 -82 L -567 -83 C -567 -88.52285 -562.52285 -93 -557 -93 Z" stroke="black" stroke-linecap="round" stroke-linejoin="round" stroke-width="1"/>
        <text transform="translate(-562 -88.5)" fill="black">
          <tspan font-family="American Typewriter" font-size="10" fill="black" x="9.755" y="9">ref: term</tspan>
        </text>
      </g>
    </g>
  </g>
</svg>
