<?xml version="1.0" encoding="UTF-8" standalone="no"?>
<!DOCTYPE svg PUBLIC "-//W3C//DTD SVG 1.1//EN" "http://www.w3.org/Graphics/SVG/1.1/DTD/svg11.dtd">
<svg xmlns="http://www.w3.org/2000/svg" xmlns:dc="http://purl.org/dc/elements/1.1/" version="1.1" xmlns:xl="http://www.w3.org/1999/xlink" viewBox="-379.5 -189.5 317 76" width="317" height="76">
  <defs/>
  <g id="parser-04" fill-opacity="1" fill="none" stroke-dasharray="none" stroke-opacity="1" stroke="none">
    <title>parser-04</title>
    <rect fill="white" x="-379.5" y="-189.5" width="317" height="76"/>
    <g id="parser-04_Layer_1">
      <title>Layer 1</title>
      <g id="Group_328">
        <g id="Graphic_31">
          <path d="M -247 -189 L -195 -189 C -189.47715 -189 -185 -184.52285 -185 -179 L -185 -178 C -185 -172.47715 -189.47715 -168 -195 -168 L -247 -168 C -252.52285 -168 -257 -172.47715 -257 -178 L -257 -179 C -257 -184.52285 -252.52285 -189 -247 -189 Z" fill="#ffc0c0"/>
          <path d="M -247 -189 L -195 -189 C -189.47715 -189 -185 -184.52285 -185 -179 L -185 -178 C -185 -172.47715 -189.47715 -168 -195 -168 L -247 -168 C -252.52285 -168 -257 -172.47715 -257 -178 L -257 -179 C -257 -184.52285 -252.52285 -189 -247 -189 Z" stroke="black" stroke-linecap="round" stroke-linejoin="round" stroke-width="1"/>
          <text transform="translate(-252 -184.5)" fill="black">
            <tspan font-family="American Typewriter" font-size="10" fill="black" x="6.08" y="9">rule: more</tspan>
          </text>
        </g>
        <g id="Graphic_32">
          <path d="M -165.5 -162 L -113.5 -162 C -107.97715 -162 -103.5 -157.52285 -103.5 -152 L -103.5 -151 C -103.5 -145.47715 -107.97715 -141 -113.5 -141 L -165.5 -141 C -171.02285 -141 -175.5 -145.47715 -175.5 -151 L -175.5 -152 C -175.5 -157.52285 -171.02285 -162 -165.5 -162 Z" fill="#ffffc0"/>
          <path d="M -165.5 -162 L -113.5 -162 C -107.97715 -162 -103.5 -157.52285 -103.5 -152 L -103.5 -151 C -103.5 -145.47715 -107.97715 -141 -113.5 -141 L -165.5 -141 C -171.02285 -141 -175.5 -145.47715 -175.5 -151 L -175.5 -152 C -175.5 -157.52285 -171.02285 -162 -165.5 -162 Z" stroke="black" stroke-linecap="round" stroke-linejoin="round" stroke-width="1"/>
          <text transform="translate(-170.5 -157.5)" fill="black">
            <tspan font-family="American Typewriter" font-size="10" fill="black" x="23.08" y="9">seq</tspan>
          </text>
        </g>
        <g id="Graphic_26">
          <path d="M -125 -135 L -73 -135 C -67.47715 -135 -63 -130.52285 -63 -125 L -63 -124 C -63 -118.47715 -67.47715 -114 -73 -114 L -125 -114 C -130.52285 -114 -135 -118.47715 -135 -124 L -135 -125 C -135 -130.52285 -130.52285 -135 -125 -135 Z" fill="#c0ffc0"/>
          <path d="M -125 -135 L -73 -135 C -67.47715 -135 -63 -130.52285 -63 -125 L -63 -124 C -63 -118.47715 -67.47715 -114 -73 -114 L -125 -114 C -130.52285 -114 -135 -118.47715 -135 -124 L -135 -125 C -135 -130.52285 -130.52285 -135 -125 -135 Z" stroke="black" stroke-linecap="round" stroke-linejoin="round" stroke-width="1"/>
          <text transform="translate(-130 -130.5)" fill="black">
            <tspan font-family="American Typewriter" font-size="10" fill="black" x="9.755" y="9">ref: term</tspan>
          </text>
        </g>
        <g id="Graphic_33">
          <path d="M -206 -135 L -154 -135 C -148.47715 -135 -144 -130.52285 -144 -125 L -144 -124 C -144 -118.47715 -148.47715 -114 -154 -114 L -206 -114 C -211.52285 -114 -216 -118.47715 -216 -124 L -216 -125 C -216 -130.52285 -211.52285 -135 -206 -135 Z" stroke="black" stroke-linecap="round" stroke-linejoin="round" stroke-width="1"/>
          <text transform="translate(-211 -130.5)" fill="black">
            <tspan font-family="American Typewriter" font-size="10" fill="black" x="18.24" y="9">lit: ‘–‘</tspan>
          </text>
        </g>
        <g id="Graphic_57">
          <path d="M -328.5 -162 L -276.5 -162 C -270.97715 -162 -266.5 -157.52285 -266.5 -152 L -266.5 -151 C -266.5 -145.47715 -270.97715 -141 -276.5 -141 L -328.5 -141 C -334.02285 -141 -338.5 -145.47715 -338.5 -151 L -338.5 -152 C -338.5 -157.52285 -334.02285 -162 -328.5 -162 Z" fill="#ffffc0"/>
          <path d="M -328.5 -162 L -276.5 -162 C -270.97715 -162 -266.5 -157.52285 -266.5 -152 L -266.5 -151 C -266.5 -145.47715 -270.97715 -141 -276.5 -141 L -328.5 -141 C -334.02285 -141 -338.5 -145.47715 -338.5 -151 L -338.5 -152 C -338.5 -157.52285 -334.02285 -162 -328.5 -162 Z" stroke="black" stroke-linecap="round" stroke-linejoin="round" stroke-width="1"/>
          <text transform="translate(-333.5 -157.5)" fill="black">
            <tspan font-family="American Typewriter" font-size="10" fill="black" x="23.08" y="9">seq</tspan>
          </text>
        </g>
        <g id="Graphic_56">
          <path d="M -288 -135 L -236 -135 C -230.47715 -135 -226 -130.52285 -226 -125 L -226 -124 C -226 -118.47715 -230.47715 -114 -236 -114 L -288 -114 C -293.52285 -114 -298 -118.47715 -298 -124 L -298 -125 C -298 -130.52285 -293.52285 -135 -288 -135 Z" fill="#c0ffc0"/>
          <path d="M -288 -135 L -236 -135 C -230.47715 -135 -226 -130.52285 -226 -125 L -226 -124 C -226 -118.47715 -230.47715 -114 -236 -114 L -288 -114 C -293.52285 -114 -298 -118.47715 -298 -124 L -298 -125 C -298 -130.52285 -293.52285 -135 -288 -135 Z" stroke="black" stroke-linecap="round" stroke-linejoin="round" stroke-width="1"/>
          <text transform="translate(-293 -130.5)" fill="black">
            <tspan font-family="American Typewriter" font-size="10" fill="black" x="9.755" y="9">ref: term</tspan>
          </text>
        </g>
        <g id="Graphic_55">
          <path d="M -369 -135 L -317 -135 C -311.47715 -135 -307 -130.52285 -307 -125 L -307 -124 C -307 -118.47715 -311.47715 -114 -317 -114 L -369 -114 C -374.52285 -114 -379 -118.47715 -379 -124 L -379 -125 C -379 -130.52285 -374.52285 -135 -369 -135 Z" stroke="black" stroke-linecap="round" stroke-linejoin="round" stroke-width="1"/>
          <text transform="translate(-374 -130.5)" fill="black">
            <tspan font-family="American Typewriter" font-size="10" fill="black" x="18.24" y="9">lit: ‘+‘</tspan>
          </text>
        </g>
        <g id="Line_74">
          <line x1="-250.6365" y1="-168.68177" x2="-272.8635" y2="-161.31823" stroke="#7f8080" stroke-linecap="round" stroke-linejoin="round" stroke-width="1"/>
        </g>
        <g id="Line_76">
          <line x1="-191.36349" y1="-168.68177" x2="-169.13651" y2="-161.31823" stroke="#7f8080" stroke-linecap="round" stroke-linejoin="round" stroke-width="1"/>
        </g>
        <g id="Line_78">
          <line x1="-318.25" y1="-141" x2="-327.25" y2="-135" stroke="#7f8080" stroke-linecap="round" stroke-linejoin="round" stroke-width="1"/>
        </g>
        <g id="Line_79">
          <line x1="-286.75" y1="-141" x2="-277.75" y2="-135" stroke="#7f8080" stroke-linecap="round" stroke-linejoin="round" stroke-width="1"/>
        </g>
        <g id="Line_80">
          <line x1="-155.25" y1="-141" x2="-164.25" y2="-135" stroke="#7f8080" stroke-linecap="round" stroke-linejoin="round" stroke-width="1"/>
        </g>
        <g id="Line_81">
          <line x1="-123.75" y1="-141" x2="-114.75" y2="-135" stroke="#7f8080" stroke-linecap="round" stroke-linejoin="round" stroke-width="1"/>
        </g>
      </g>
    </g>
  </g>
</svg>
