<?xml version="1.0" encoding="UTF-8" standalone="no"?>
<!DOCTYPE svg PUBLIC "-//W3C//DTD SVG 1.1//EN" "http://www.w3.org/Graphics/SVG/1.1/DTD/svg11.dtd">
<svg xmlns="http://www.w3.org/2000/svg" xmlns:dc="http://purl.org/dc/elements/1.1/" version="1.1" xmlns:xl="http://www.w3.org/1999/xlink" viewBox="-527 -120.5 73 22" width="73" height="22">
  <defs/>
  <g id="parser-04" fill-opacity="1" fill="none" stroke-dasharray="none" stroke-opacity="1" stroke="none">
    <title>parser-04</title>
    <rect fill="white" x="-527" y="-120.5" width="73" height="22"/>
    <g id="parser-04_Layer_1">
      <title>Layer 1</title>
      <g id="Graphic_20">
        <path d="M -516.5 -120 L -464.5 -120 C -458.97715 -120 -454.5 -115.52285 -454.5 -110 L -454.5 -109 C -454.5 -103.47715 -458.97715 -99 -464.5 -99 L -516.5 -99 C -522.02285 -99 -526.5 -103.47715 -526.5 -109 L -526.5 -110 C -526.5 -115.52285 -522.02285 -120 -516.5 -120 Z" fill="#ffffc0"/>
        <path d="M -516.5 -120 L -464.5 -120 C -458.97715 -120 -454.5 -115.52285 -454.5 -110 L -454.5 -109 C -454.5 -103.47715 -458.97715 -99 -464.5 -99 L -516.5 -99 C -522.02285 -99 -526.5 -103.47715 -526.5 -109 L -526.5 -110 C -526.5 -115.52285 -522.02285 -120 -516.5 -120 Z" stroke="black" stroke-linecap="round" stroke-linejoin="round" stroke-width="1"/>
        <text transform="translate(-521.5 -115.5)" fill="black">
          <tspan font-family="American Typewriter" font-size="10" fill="black" x="23.08" y="9">seq</tspan>
        </text>
      </g>
    </g>
  </g>
</svg>
